<svg width="854" height="854" viewBox="0 0 854 854" fill="none" xmlns="http://www.w3.org/2000/svg">
<path d="M551.733 96.9332C546.4 124.4 530.133 141.733 505.2 146.933C497.467 148.533 494.533 150.667 500.133 150.667C501.6 150.667 507.333 152.133 512.933 154C536.8 162 545.467 172.8 551.867 202L554.133 212.533L556.4 201.6C562.133 173.2 576.667 157.6 604 150.933L614 148.4L607.333 147.467C596.4 145.733 582.4 139.2 575.067 132.267C565.867 123.6 561.2 114.933 557.333 99.1999L554 85.5999L551.733 96.9332Z" fill="#19202E"/>
<path d="M400 92.8C367.067 95.2 329.2 105.6 295.467 121.2C231.067 151.333 176.133 205.2 143.6 270C124.8 307.467 114.8 339.2 109.2 380C106.4 399.467 106.8 452.933 109.733 472C118.933 530.667 140.133 580.667 175.867 627.2C196.667 654.4 232.267 686.667 260.667 704C274.533 712.533 305.467 727.2 320.8 732.4C354.667 744.133 378.933 748 418.667 748C449.6 748 465.6 746.267 490 740.4C546.267 726.8 594.933 699.467 637.333 657.467C665.733 629.333 680.133 609.6 697.333 575.333C716.4 537.6 728.533 496.667 731.333 461.2C732.533 445.6 730.4 444.933 726 459.333C701.867 538.4 641.6 600.8 563.867 627.2C502 648.133 429.333 642.667 373.333 613.067C335.467 593.067 300 559.867 278.8 524.933C258.533 491.733 247.333 462.133 241.067 425.333C237.2 403.067 236.8 353.2 240.4 332.667C246.133 300.267 253.333 278.267 268.133 248.667C301.333 181.733 360.4 129.733 432.533 104C442.667 100.4 451.333 97.0667 451.733 96.6667C454 94.4 447.733 93.4667 428.667 92.9334C416.933 92.5334 404 92.5334 400 92.8Z" fill="#19202E"/>
<path d="M472.667 193.467C446.4 208.267 420 227.6 393.467 251.867L379.734 264.4L373.067 256.933C369.467 252.667 366 249.333 365.467 249.333C364.8 249.333 364 254.267 363.6 260.267C363.2 266.4 362.534 272.4 362 273.6C361.467 274.8 356.267 278.267 350.4 281.333C338.667 287.467 338.534 288.533 350 290C358.8 291.2 364.934 293.867 365.734 296.933C366.134 298.267 366.8 304 367.334 309.6C367.867 315.333 368.667 320 369.334 320C369.867 320 371.734 317.467 373.334 314.4C374.934 311.333 378.134 305.867 380.4 302.267C385.2 295.067 383.467 295.333 402.534 298.133L408.534 299.067L401.6 289.333C397.734 283.867 394.667 278.4 394.667 277.2C394.667 270.667 435.334 229.733 466.4 205.067C478.267 195.467 488 187.467 488 187.2C488 185.6 483.334 187.467 472.667 193.467Z" fill="#19202E"/>
<path d="M636 240C636 249.066 626.267 260.8 616.133 264.133L611.467 265.733L618.4 268.266C626.8 271.466 634.4 279.6 635.467 286.933C636.533 293.333 638.133 293.466 639.2 286.933C640.667 277.333 646.533 270.933 656.8 267.333L661.467 265.733L655.467 263.466C647.067 260.266 640.533 252.266 638.667 243.2C636.933 235.2 636 234 636 240Z" fill="#19202E"/>
<path d="M500.533 267.467C496.267 269.467 314.267 451.333 307.067 460.8C301.467 467.867 300.667 471.733 303.6 476.933C304.933 479.333 314.667 490.267 325.2 501.2L344.4 521.2L349.867 518.267C357.733 514.133 376.933 514 384.667 518.267C392 522.133 400.533 530.667 404.267 537.6C408.267 545.2 408.667 564.8 404.8 571.867L402.4 576.4L416.267 590.267C423.733 597.867 432.8 606.267 436.133 608.8C445.2 615.467 448.267 614.933 460.133 604.933C481.333 586.667 639.733 426.667 645.6 417.467C652.933 405.867 650.133 400 627.067 377.067L612.667 362.667L603.333 366C585.2 372.4 569.867 369.467 557.733 357.2C548.8 348.267 545.067 340.533 544.267 329.2C543.733 321.867 544.267 318.4 546.667 311.867L549.6 303.6L535.2 289.067C512.4 266.267 508.4 263.6 500.533 267.467Z" fill="#19202E"/>
</svg>
