<svg width="625" height="663" viewBox="0 0 625 663" fill="none" xmlns="http://www.w3.org/2000/svg">
<path d="M444.733 11.9332C439.4 39.3999 423.133 56.7332 398.2 61.9332C390.467 63.5332 387.533 65.6665 393.133 65.6665C394.6 65.6665 400.333 67.1332 405.933 68.9999C429.8 76.9999 438.467 87.7999 444.867 117L447.133 127.533L449.4 116.6C455.133 88.1999 469.667 72.5999 497 65.9332L507 63.3999L500.333 62.4665C489.4 60.7332 475.4 54.1999 468.067 47.2665C458.867 38.5999 454.2 29.9332 450.333 14.1999L447 0.599863L444.733 11.9332Z" fill="#19202E"/>
<path d="M293 7.80004C260.067 10.2 222.2 20.6 188.467 36.2C124.067 66.3334 69.1334 120.2 36.6 185C17.8 222.467 7.80002 254.2 2.20002 295C-0.599977 314.467 -0.199977 367.933 2.73336 387C11.9334 445.667 33.1334 495.667 68.8667 542.2C89.6667 569.4 125.267 601.667 153.667 619C167.533 627.533 198.467 642.2 213.8 647.4C247.667 659.133 271.933 663 311.667 663C342.6 663 358.6 661.267 383 655.4C439.267 641.8 487.933 614.467 530.333 572.467C558.733 544.333 573.133 524.6 590.333 490.333C609.4 452.6 621.533 411.667 624.333 376.2C625.533 360.6 623.4 359.933 619 374.333C594.867 453.4 534.6 515.8 456.867 542.2C395 563.133 322.333 557.667 266.333 528.067C228.467 508.067 193 474.867 171.8 439.933C151.533 406.733 140.333 377.133 134.067 340.333C130.2 318.067 129.8 268.2 133.4 247.667C139.133 215.267 146.333 193.267 161.133 163.667C194.333 96.7334 253.4 44.7334 325.533 19C335.667 15.4 344.333 12.0667 344.733 11.6667C347 9.40004 340.733 8.46671 321.667 7.93337C309.933 7.53337 297 7.53337 293 7.80004Z" fill="#19202E"/>
<path d="M365.667 108.467C339.4 123.267 313 142.6 286.467 166.867L272.734 179.4L266.067 171.933C262.467 167.667 259 164.333 258.467 164.333C257.8 164.333 257 169.267 256.6 175.267C256.2 181.4 255.534 187.4 255 188.6C254.467 189.8 249.267 193.267 243.4 196.333C231.667 202.467 231.534 203.533 243 205C251.8 206.2 257.934 208.867 258.734 211.933C259.134 213.267 259.8 219 260.334 224.6C260.867 230.333 261.667 235 262.334 235C262.867 235 264.734 232.467 266.334 229.4C267.934 226.333 271.134 220.867 273.4 217.267C278.2 210.067 276.467 210.333 295.534 213.133L301.534 214.067L294.6 204.333C290.734 198.867 287.667 193.4 287.667 192.2C287.667 185.667 328.334 144.733 359.4 120.067C371.267 110.467 381 102.467 381 102.2C381 100.6 376.334 102.467 365.667 108.467Z" fill="#19202E"/>
<path d="M529 155C529 164.066 519.267 175.8 509.133 179.133L504.467 180.733L511.4 183.266C519.8 186.466 527.4 194.6 528.467 201.933C529.533 208.333 531.133 208.466 532.2 201.933C533.667 192.333 539.533 185.933 549.8 182.333L554.467 180.733L548.467 178.466C540.067 175.266 533.533 167.266 531.667 158.2C529.933 150.2 529 149 529 155Z" fill="#19202E"/>
<path d="M393.533 182.467C389.267 184.467 207.267 366.333 200.067 375.8C194.467 382.867 193.667 386.733 196.6 391.933C197.933 394.333 207.667 405.267 218.2 416.2L237.4 436.2L242.867 433.267C250.733 429.133 269.933 429 277.667 433.267C285 437.133 293.533 445.667 297.267 452.6C301.267 460.2 301.667 479.8 297.8 486.867L295.4 491.4L309.267 505.267C316.733 512.867 325.8 521.267 329.133 523.8C338.2 530.467 341.267 529.933 353.133 519.933C374.333 501.667 532.733 341.667 538.6 332.467C545.933 320.867 543.133 315 520.067 292.067L505.667 277.667L496.333 281C478.2 287.4 462.867 284.467 450.733 272.2C441.8 263.267 438.067 255.533 437.267 244.2C436.733 236.867 437.267 233.4 439.667 226.867L442.6 218.6L428.2 204.067C405.4 181.267 401.4 178.6 393.533 182.467Z" fill="#19202E"/>
</svg>
